<svg width="64" height="64" viewBox="0 0 64 64" fill="none" xmlns="http://www.w3.org/2000/svg">
<path d="M36 16.5L17.5 35.5L28.5 47L47 28.5L51 32L56.5 7L32 13L36 16.5Z" fill="white"/>
<path d="M58.3174 5.68256C57.8496 5.21408 57.1725 5.0176 56.528 5.16864L31.568 10.9286C30.8883 11.0861 30.3475 11.6 30.1542 12.2701C29.9622 12.9414 30.1485 13.664 30.6426 14.1574L33.1251 16.64C23.1494 26.6157 25.2774 24.4877 15.2826 34.4826C14.5325 35.2326 14.5325 36.4474 15.2826 37.1974C18.121 40.0358 23.9533 45.8682 26.8026 48.7174C27.5526 49.4675 28.7674 49.4675 29.5174 48.7174C39.4931 38.7424 37.3645 40.8704 47.36 30.8749L49.8426 33.3574C50.3219 33.8381 51.0374 34.0422 51.7299 33.8458C52.4 33.6525 52.9139 33.1117 53.0714 32.432L58.8314 7.472C58.9792 6.82624 58.7853 6.1504 58.3174 5.68256ZM24.32 30.8749V40.8051L19.3549 35.84L24.32 30.8749ZM28.16 44.6451V27.0349L35.84 19.3549V36.9651L28.16 44.6451ZM39.68 33.1251V23.1949L44.6451 28.16L39.68 33.1251ZM50.1075 28.1926C42.7936 20.8787 44.5523 22.6374 35.8067 13.8918L54.3981 9.60064L50.1075 28.1926Z" fill="#DB2323"/>
<path d="M19.9174 46.7974L8.39744 58.3174C7.64736 59.0675 6.43264 59.0675 5.68256 58.3174C4.93248 57.5674 4.93248 56.3526 5.68256 55.6026L17.2026 44.0826C17.9526 43.3325 19.1674 43.3325 19.9174 44.0826C20.6675 44.8326 20.6675 46.0474 19.9174 46.7974Z" fill="#DB2323"/>
<path d="M5.12 41.6C5.12 40.5395 5.97952 39.68 7.04 39.68H12.8C13.8605 39.68 14.72 40.5395 14.72 41.6C14.72 42.6605 13.8605 43.52 12.8 43.52H7.04C5.97952 43.52 5.12 42.6605 5.12 41.6Z" fill="#DB2323"/>
<path d="M24.32 51.2V56.96C24.32 58.0205 23.4605 58.88 22.4 58.88C21.3395 58.88 20.48 58.0205 20.48 56.96V51.2C20.48 50.1395 21.3395 49.28 22.4 49.28C23.4605 49.28 24.32 50.1395 24.32 51.2Z" fill="#DB2323"/>
</svg>
