<svg width="1000" height="182" viewBox="0 0 1000 182" fill="none" xmlns="http://www.w3.org/2000/svg">
<g clip-path="url(#clip0)">
<path d="M201.863 143H178.04V23.9668H261.38V47.79H201.863V71.6133H237.557V95.4365H201.863V143ZM294.088 143H270.265V23.9668H294.088V143ZM336.675 47.79V95.4365H360.498C363.763 95.4365 366.834 94.8278 369.712 93.6104C372.589 92.3376 375.107 90.6221 377.265 88.4639C379.424 86.3057 381.111 83.7878 382.329 80.9102C383.602 77.9772 384.238 74.8783 384.238 71.6133C384.238 68.3483 383.602 65.277 382.329 62.3994C381.111 59.4665 379.424 56.9209 377.265 54.7627C375.107 52.6045 372.589 50.9167 369.712 49.6992C366.834 48.4264 363.763 47.79 360.498 47.79H336.675ZM336.675 143H312.851V23.9668H360.498C364.87 23.9668 369.075 24.5479 373.115 25.71C377.155 26.8167 380.918 28.4215 384.404 30.5244C387.946 32.5719 391.155 35.0622 394.033 37.9951C396.966 40.8727 399.456 44.0824 401.504 47.624C403.607 51.1657 405.211 54.9564 406.318 58.9961C407.48 63.0358 408.061 67.2415 408.061 71.6133C408.061 75.7083 407.536 79.6927 406.484 83.5664C405.488 87.4401 404.022 91.1201 402.085 94.6064C400.203 98.0928 397.879 101.302 395.112 104.235C392.345 107.168 389.246 109.714 385.815 111.872L399.013 143H373.696L363.32 119.011L336.675 119.177V143ZM501.946 143H420.35V23.9668H501.946V47.79H444.173V71.6133H483.27V95.4365H444.173V119.177H501.946V143ZM633.351 108.967C633.351 113.892 632.41 118.54 630.529 122.912C628.703 127.229 626.157 131.019 622.892 134.284C619.683 137.494 615.892 140.039 611.52 141.921C607.204 143.747 602.583 144.66 597.658 144.66C593.231 144.66 588.97 143.885 584.875 142.336C580.835 140.786 577.183 138.518 573.918 135.529C570.653 138.518 566.973 140.786 562.878 142.336C558.782 143.885 554.521 144.66 550.094 144.66C545.169 144.66 540.521 143.747 536.149 141.921C531.833 140.039 528.042 137.494 524.777 134.284C521.567 131.019 519.022 127.229 517.14 122.912C515.314 118.54 514.401 113.892 514.401 108.967V23.9668H538.224V108.967C538.224 110.627 538.529 112.204 539.137 113.698C539.746 115.137 540.576 116.41 541.628 117.517C542.734 118.568 544.007 119.398 545.446 120.007C546.885 120.616 548.434 120.92 550.094 120.92C551.754 120.92 553.304 120.616 554.743 120.007C556.182 119.398 557.427 118.568 558.478 117.517C559.585 116.41 560.443 115.137 561.051 113.698C561.66 112.204 561.964 110.627 561.964 108.967V23.9668H585.788V108.967C585.788 110.627 586.092 112.204 586.701 113.698C587.309 115.137 588.14 116.41 589.191 117.517C590.298 118.568 591.571 119.398 593.009 120.007C594.448 120.616 595.998 120.92 597.658 120.92C599.318 120.92 600.867 120.616 602.306 120.007C603.745 119.398 604.99 118.568 606.042 117.517C607.148 116.41 608.006 115.137 608.615 113.698C609.279 112.204 609.611 110.627 609.611 108.967V23.9668H633.351V108.967ZM767.91 83.9814C767.91 89.626 767.163 95.0768 765.669 100.334C764.23 105.536 762.183 110.433 759.526 115.026C756.87 119.564 753.66 123.715 749.897 127.478C746.134 131.241 741.984 134.478 737.446 137.189C732.909 139.846 728.011 141.893 722.754 143.332C717.497 144.826 712.046 145.573 706.401 145.573C700.757 145.573 695.306 144.826 690.049 143.332C684.847 141.893 679.95 139.846 675.356 137.189C670.819 134.478 666.668 131.241 662.905 127.478C659.142 123.715 655.905 119.564 653.193 115.026C650.537 110.433 648.462 105.536 646.968 100.334C645.529 95.0768 644.81 89.626 644.81 83.9814C644.81 78.3369 645.529 72.8861 646.968 67.6289C648.462 62.3717 650.537 57.4743 653.193 52.9365C655.905 48.3988 659.142 44.2484 662.905 40.4854C666.668 36.7223 670.819 33.5127 675.356 30.8564C679.95 28.2002 684.847 26.1527 690.049 24.7139C695.306 23.2197 700.757 22.4727 706.401 22.4727C712.046 22.4727 717.497 23.2197 722.754 24.7139C728.011 26.1527 732.909 28.2002 737.446 30.8564C741.984 33.5127 746.134 36.7223 749.897 40.4854C753.66 44.2484 756.87 48.3988 759.526 52.9365C762.183 57.4743 764.23 62.3717 765.669 67.6289C767.163 72.8861 767.91 78.3369 767.91 83.9814ZM744.253 83.9814C744.253 78.7796 743.257 73.8822 741.265 69.2891C739.272 64.6406 736.561 60.6286 733.13 57.2529C729.754 53.8219 725.742 51.1104 721.094 49.1182C716.501 47.126 711.603 46.1299 706.401 46.1299C701.144 46.1299 696.219 47.126 691.626 49.1182C687.033 51.1104 683.021 53.8219 679.59 57.2529C676.159 60.6286 673.447 64.6406 671.455 69.2891C669.463 73.8822 668.467 78.7796 668.467 83.9814C668.467 89.1833 669.463 94.0807 671.455 98.6738C673.447 103.212 676.159 107.196 679.59 110.627C683.021 114.058 687.033 116.77 691.626 118.762C696.219 120.754 701.144 121.75 706.401 121.75C711.603 121.75 716.501 120.754 721.094 118.762C725.742 116.77 729.754 114.058 733.13 110.627C736.561 107.196 739.272 103.212 741.265 98.6738C743.257 94.0807 744.253 89.1833 744.253 83.9814ZM869.017 143H840.13L817.22 104.567L794.227 143H765.506L802.03 83.4834L765.506 23.9668H794.227L817.22 62.3994L840.13 23.9668H869.017L832.494 83.4834L869.017 143Z" fill="#9EA2A8"/>
<path d="M101.812 36.6641L49.4922 90.3984L80.6016 122.922L132.922 70.6016L144.234 80.5L159.789 9.79688L90.5 26.7656L101.812 36.6641Z" fill="white"/>
<path d="M164.929 6.07099C163.606 4.74607 161.691 4.1904 159.868 4.61756L89.2782 20.9076C87.356 21.3528 85.8266 22.8062 85.28 24.7013C84.737 26.6 85.2637 28.6435 86.661 30.039L93.682 37.06C65.4695 65.2725 71.4878 59.2542 43.221 87.521C41.0997 89.6423 41.0997 93.0777 43.221 95.199C51.2483 103.226 67.7429 119.721 75.801 127.779C77.9223 129.9 81.3577 129.9 83.479 127.779C111.691 99.5683 105.671 105.587 133.94 77.318L140.961 84.339C142.317 85.6983 144.34 86.2757 146.299 85.72C148.194 85.1734 149.647 83.644 150.092 81.7217L166.382 11.1317C166.801 9.30546 166.252 7.3941 164.929 6.07099ZM68.78 77.318V105.402L54.738 91.36L68.78 77.318ZM79.64 116.262V66.458L101.36 44.738V94.542L79.64 116.262ZM112.22 83.682V55.598L126.262 69.64L112.22 83.682ZM141.71 69.7323C121.026 49.0476 126 54.0215 101.266 29.2879L153.845 17.1518L141.71 69.7323Z" fill="#DB2323"/>
<path d="M56.329 122.349L23.749 154.929C21.6277 157.05 18.1923 157.05 16.071 154.929C13.9497 152.808 13.9497 149.372 16.071 147.251L48.651 114.671C50.7723 112.55 54.2077 112.55 56.329 114.671C58.4503 116.792 58.4503 120.228 56.329 122.349Z" fill="#DB2323"/>
<path d="M14.48 107.65C14.48 104.651 16.9108 102.22 19.91 102.22H36.2C39.1992 102.22 41.63 104.651 41.63 107.65C41.63 110.649 39.1992 113.08 36.2 113.08H19.91C16.9108 113.08 14.48 110.649 14.48 107.65Z" fill="#DB2323"/>
<path d="M68.78 134.8V151.09C68.78 154.089 66.3492 156.52 63.35 156.52C60.3508 156.52 57.92 154.089 57.92 151.09V134.8C57.92 131.801 60.3508 129.37 63.35 129.37C66.3492 129.37 68.78 131.801 68.78 134.8Z" fill="#DB2323"/>
</g>
<defs>
<clipPath id="clip0">
<rect width="1000" height="182" fill="white"/>
</clipPath>
</defs>
</svg>
