<svg width="1000" height="182" viewBox="0 0 1000 182" fill="none" xmlns="http://www.w3.org/2000/svg">
<g clip-path="url(#clip0)">
<path d="M201.863 146H178.04V26.9668H261.38V50.79H201.863V74.6133H237.557V98.4365H201.863V146ZM294.088 146H270.265V26.9668H294.088V146ZM336.675 50.79V98.4365H360.498C363.763 98.4365 366.834 97.8278 369.712 96.6104C372.589 95.3376 375.107 93.6221 377.265 91.4639C379.424 89.3057 381.111 86.7878 382.329 83.9102C383.602 80.9772 384.238 77.8783 384.238 74.6133C384.238 71.3483 383.602 68.277 382.329 65.3994C381.111 62.4665 379.424 59.9209 377.265 57.7627C375.107 55.6045 372.589 53.9167 369.712 52.6992C366.834 51.4264 363.763 50.79 360.498 50.79H336.675ZM336.675 146H312.851V26.9668H360.498C364.87 26.9668 369.075 27.5479 373.115 28.71C377.155 29.8167 380.918 31.4215 384.404 33.5244C387.946 35.5719 391.155 38.0622 394.033 40.9951C396.966 43.8727 399.456 47.0824 401.504 50.624C403.607 54.1657 405.211 57.9564 406.318 61.9961C407.48 66.0358 408.061 70.2415 408.061 74.6133C408.061 78.7083 407.536 82.6927 406.484 86.5664C405.488 90.4401 404.022 94.1201 402.085 97.6064C400.203 101.093 397.879 104.302 395.112 107.235C392.345 110.168 389.246 112.714 385.815 114.872L399.013 146H373.696L363.32 122.011L336.675 122.177V146ZM501.946 146H420.35V26.9668H501.946V50.79H444.173V74.6133H483.27V98.4365H444.173V122.177H501.946V146ZM633.351 111.967C633.351 116.892 632.41 121.54 630.529 125.912C628.703 130.229 626.157 134.019 622.892 137.284C619.683 140.494 615.892 143.039 611.52 144.921C607.204 146.747 602.583 147.66 597.658 147.66C593.231 147.66 588.97 146.885 584.875 145.336C580.835 143.786 577.183 141.518 573.918 138.529C570.653 141.518 566.973 143.786 562.878 145.336C558.782 146.885 554.521 147.66 550.094 147.66C545.169 147.66 540.521 146.747 536.149 144.921C531.833 143.039 528.042 140.494 524.777 137.284C521.567 134.019 519.022 130.229 517.14 125.912C515.314 121.54 514.401 116.892 514.401 111.967V26.9668H538.224V111.967C538.224 113.627 538.529 115.204 539.137 116.698C539.746 118.137 540.576 119.41 541.628 120.517C542.734 121.568 544.007 122.398 545.446 123.007C546.885 123.616 548.434 123.92 550.094 123.92C551.754 123.92 553.304 123.616 554.743 123.007C556.182 122.398 557.427 121.568 558.478 120.517C559.585 119.41 560.443 118.137 561.051 116.698C561.66 115.204 561.964 113.627 561.964 111.967V26.9668H585.788V111.967C585.788 113.627 586.092 115.204 586.701 116.698C587.309 118.137 588.14 119.41 589.191 120.517C590.298 121.568 591.571 122.398 593.009 123.007C594.448 123.616 595.998 123.92 597.658 123.92C599.318 123.92 600.867 123.616 602.306 123.007C603.745 122.398 604.99 121.568 606.042 120.517C607.148 119.41 608.006 118.137 608.615 116.698C609.279 115.204 609.611 113.627 609.611 111.967V26.9668H633.351V111.967ZM767.91 86.9814C767.91 92.626 767.163 98.0768 765.669 103.334C764.23 108.536 762.183 113.433 759.526 118.026C756.87 122.564 753.66 126.715 749.897 130.478C746.134 134.241 741.984 137.478 737.446 140.189C732.909 142.846 728.011 144.893 722.754 146.332C717.497 147.826 712.046 148.573 706.401 148.573C700.757 148.573 695.306 147.826 690.049 146.332C684.847 144.893 679.95 142.846 675.356 140.189C670.819 137.478 666.668 134.241 662.905 130.478C659.142 126.715 655.905 122.564 653.193 118.026C650.537 113.433 648.462 108.536 646.968 103.334C645.529 98.0768 644.81 92.626 644.81 86.9814C644.81 81.3369 645.529 75.8861 646.968 70.6289C648.462 65.3717 650.537 60.4743 653.193 55.9365C655.905 51.3988 659.142 47.2484 662.905 43.4854C666.668 39.7223 670.819 36.5127 675.356 33.8564C679.95 31.2002 684.847 29.1527 690.049 27.7139C695.306 26.2197 700.757 25.4727 706.401 25.4727C712.046 25.4727 717.497 26.2197 722.754 27.7139C728.011 29.1527 732.909 31.2002 737.446 33.8564C741.984 36.5127 746.134 39.7223 749.897 43.4854C753.66 47.2484 756.87 51.3988 759.526 55.9365C762.183 60.4743 764.23 65.3717 765.669 70.6289C767.163 75.8861 767.91 81.3369 767.91 86.9814ZM744.253 86.9814C744.253 81.7796 743.257 76.8822 741.265 72.2891C739.272 67.6406 736.561 63.6286 733.13 60.2529C729.754 56.8219 725.742 54.1104 721.094 52.1182C716.501 50.126 711.603 49.1299 706.401 49.1299C701.144 49.1299 696.219 50.126 691.626 52.1182C687.033 54.1104 683.021 56.8219 679.59 60.2529C676.159 63.6286 673.447 67.6406 671.455 72.2891C669.463 76.8822 668.467 81.7796 668.467 86.9814C668.467 92.1833 669.463 97.0807 671.455 101.674C673.447 106.212 676.159 110.196 679.59 113.627C683.021 117.058 687.033 119.77 691.626 121.762C696.219 123.754 701.144 124.75 706.401 124.75C711.603 124.75 716.501 123.754 721.094 121.762C725.742 119.77 729.754 117.058 733.13 113.627C736.561 110.196 739.272 106.212 741.265 101.674C743.257 97.0807 744.253 92.1833 744.253 86.9814ZM869.017 146H840.13L817.22 107.567L794.227 146H765.506L802.03 86.4834L765.506 26.9668H794.227L817.22 65.3994L840.13 26.9668H869.017L832.494 86.4834L869.017 146Z" fill="#2F343D"/>
<path d="M101.812 36.6641L49.4922 90.3984L80.6016 122.922L132.922 70.6016L144.234 80.5L159.789 9.79688L90.5 26.7656L101.812 36.6641Z" fill="white"/>
<path d="M164.929 6.07099C163.606 4.74607 161.691 4.1904 159.868 4.61756L89.2782 20.9076C87.356 21.3528 85.8266 22.8062 85.28 24.7013C84.737 26.6 85.2637 28.6435 86.661 30.039L93.682 37.06C65.4695 65.2725 71.4878 59.2542 43.221 87.521C41.0997 89.6423 41.0997 93.0777 43.221 95.199C51.2483 103.226 67.7429 119.721 75.801 127.779C77.9223 129.9 81.3577 129.9 83.479 127.779C111.691 99.5683 105.671 105.587 133.94 77.318L140.961 84.339C142.317 85.6983 144.34 86.2757 146.299 85.72C148.194 85.1734 149.647 83.644 150.092 81.7217L166.382 11.1317C166.801 9.30546 166.252 7.3941 164.929 6.07099ZM68.78 77.318V105.402L54.738 91.36L68.78 77.318ZM79.64 116.262V66.458L101.36 44.738V94.542L79.64 116.262ZM112.22 83.682V55.598L126.262 69.64L112.22 83.682ZM141.71 69.7323C121.026 49.0476 126 54.0215 101.266 29.2879L153.845 17.1518L141.71 69.7323Z" fill="#DB2323"/>
<path d="M56.329 122.349L23.749 154.929C21.6277 157.05 18.1923 157.05 16.071 154.929C13.9497 152.808 13.9497 149.372 16.071 147.251L48.651 114.671C50.7723 112.55 54.2077 112.55 56.329 114.671C58.4503 116.792 58.4503 120.228 56.329 122.349Z" fill="#DB2323"/>
<path d="M14.48 107.65C14.48 104.651 16.9108 102.22 19.91 102.22H36.2C39.1992 102.22 41.63 104.651 41.63 107.65C41.63 110.649 39.1992 113.08 36.2 113.08H19.91C16.9108 113.08 14.48 110.649 14.48 107.65Z" fill="#DB2323"/>
<path d="M68.78 134.8V151.09C68.78 154.089 66.3492 156.52 63.35 156.52C60.3508 156.52 57.92 154.089 57.92 151.09V134.8C57.92 131.801 60.3508 129.37 63.35 129.37C66.3492 129.37 68.78 131.801 68.78 134.8Z" fill="#DB2323"/>
</g>
<defs>
<clipPath id="clip0">
<rect width="1000" height="182" fill="white"/>
</clipPath>
</defs>
</svg>
